<svg xmlns="http://www.w3.org/2000/svg" viewBox="0 0 1600 190" width="1600" height="190">
<title>Under the hood: We run our own stack</title>
<style>
.draw{stroke-dasharray:1;animation:draw 1.1s .3s cubic-bezier(.6,0,.2,1) both}
@keyframes draw{from{stroke-dashoffset:1}to{stroke-dashoffset:0}}
.wig{transform-box:fill-box;transform-origin:50% 80%;animation:wig 4s 1s ease-in-out infinite}
@keyframes wig{0%,78%,100%{transform:none}84%{transform:rotate(-12deg) scale(1.06)}90%{transform:rotate(9deg)}96%{transform:rotate(-4deg)}}
.rise{animation:rise .8s cubic-bezier(.2,.9,.3,1) both}
@keyframes rise{from{opacity:0;transform:translateY(24px)}to{opacity:1;transform:none}}
@media (prefers-reduced-motion: reduce){*,*::before,*::after{animation:none!important;transition:none!important}}</style>
<path d="M21.5 46.5V36.6H24.6V46.2Q24.6 47.1 25 47.8Q25.4 48.5 26.1 48.9Q26.8 49.3 27.7 49.3Q28.6 49.3 29.3 48.9Q30 48.5 30.4 47.8Q30.8 47.1 30.8 46.2V36.6H33.9V46.5Q33.9 48.1 33 49.4Q32.1 50.8 30.7 51.5Q29.3 52.3 27.7 52.3Q26.1 52.3 24.7 51.5Q23.2 50.8 22.4 49.4Q21.5 48.1 21.5 46.5ZM38.6 36.6H42.1L48.2 47.5H47.9V36.6H51V52H47.5L41.4 41H41.7V52H38.6ZM55.7 36.6H61.7Q64 36.6 65.9 37.6Q67.7 38.6 68.7 40.3Q69.8 42.1 69.8 44.3Q69.8 46.5 68.7 48.3Q67.7 50 65.9 51Q64 52 61.7 52H55.7ZM58.2 49H61.7Q63.2 49 64.3 48.4Q65.4 47.8 66 46.7Q66.7 45.7 66.7 44.3Q66.7 42.9 66 41.9Q65.4 40.8 64.3 40.2Q63.2 39.6 61.7 39.6H58.2L58.8 38.7V49.9ZM73.6 36.6H83.6V39.6H76L76.7 38.8V49.8L76 49H83.6V52H73.6ZM74.8 42.9H83.4V45.7H74.8ZM87.7 36.6H93.8Q95.3 36.6 96.5 37.2Q97.7 37.8 98.4 38.9Q99 40.1 99 41.5Q99 42.9 98.4 44Q97.7 45.1 96.5 45.7Q95.3 46.3 93.8 46.3H88.9V43.3H93.8Q94.7 43.3 95.3 42.8Q95.9 42.3 95.9 41.5Q95.9 40.9 95.7 40.5Q95.4 40.1 94.9 39.8Q94.4 39.6 93.8 39.6H90.2L90.8 38.8V52H87.7ZM91.9 45H95.4L99.5 52H96ZM113.9 37.4H117V52H113.9ZM109.7 36.6H121.2V39.5H109.7ZM134 36.6H137.1V52H134ZM124.7 36.6H127.8V52H124.7ZM125.9 42.6H135.9V45.6H125.9ZM141.8 36.6H151.8V39.6H144.2L144.9 38.8V49.8L144.2 49H151.8V52H141.8ZM143 42.9H151.6V45.7H143ZM172.5 36.6H175.6V52H172.5ZM163.2 36.6H166.3V52H163.2ZM164.4 42.6H174.4V45.6H164.4ZM179.4 44.3Q179.4 42.1 180.5 40.3Q181.6 38.4 183.5 37.3Q185.3 36.3 187.5 36.3Q189.7 36.3 191.5 37.3Q193.4 38.4 194.4 40.3Q195.5 42.1 195.5 44.3Q195.5 46.5 194.4 48.3Q193.4 50.2 191.5 51.3Q189.7 52.3 187.5 52.3Q185.3 52.3 183.5 51.3Q181.6 50.2 180.5 48.3Q179.4 46.5 179.4 44.3ZM192.4 44.3Q192.4 42.9 191.8 41.8Q191.1 40.6 190 40Q188.8 39.3 187.5 39.3Q186.1 39.3 185 40Q183.9 40.6 183.2 41.8Q182.5 42.9 182.5 44.3Q182.5 45.7 183.2 46.8Q183.9 48 185 48.6Q186.1 49.3 187.5 49.3Q188.8 49.3 190 48.6Q191.1 48 191.8 46.8Q192.4 45.7 192.4 44.3ZM199.1 44.3Q199.1 42.1 200.1 40.3Q201.2 38.4 203.1 37.3Q204.9 36.3 207.1 36.3Q209.3 36.3 211.1 37.3Q213 38.4 214 40.3Q215.1 42.1 215.1 44.3Q215.1 46.5 214 48.3Q213 50.2 211.1 51.3Q209.3 52.3 207.1 52.3Q204.9 52.3 203.1 51.3Q201.2 50.2 200.1 48.3Q199.1 46.5 199.1 44.3ZM212 44.3Q212 42.9 211.4 41.8Q210.7 40.6 209.6 40Q208.4 39.3 207.1 39.3Q205.7 39.3 204.6 40Q203.5 40.6 202.8 41.8Q202.2 42.9 202.2 44.3Q202.2 45.7 202.8 46.8Q203.5 48 204.6 48.6Q205.7 49.3 207.1 49.3Q208.4 49.3 209.6 48.6Q210.7 48 211.4 46.8Q212 45.7 212 44.3ZM219 36.6H224.9Q227.3 36.6 229.1 37.6Q230.9 38.6 232 40.3Q233 42.1 233 44.3Q233 46.5 232 48.3Q230.9 50 229.1 51Q227.3 52 224.9 52H219ZM221.4 49H224.9Q226.4 49 227.5 48.4Q228.7 47.8 229.3 46.7Q229.9 45.7 229.9 44.3Q229.9 42.9 229.3 41.9Q228.7 40.8 227.5 40.2Q226.4 39.6 224.9 39.6H221.4L222.1 38.7V49.9Z" fill="#5da9a9"/>
<g class="rise"><path d="M50.7 87H60.8L71.6 129.5H68.8L79.9 87H91.3L77.5 136H64ZM20.9 87H32.4L45.8 136H34.9ZM47.6 103.6Q49.3 100.1 50.2 97.8Q51.1 95.5 51.3 92.8Q51.6 90 50.7 87H60.8Q61.7 90.2 61 93.7Q60.3 97.1 58.9 100.3Q57.4 103.5 54.7 108.4Q51.7 114 49.9 118Q48.1 122 47.4 126.6Q46.6 131.2 47.7 136H45.8Q43.1 128.5 42.9 122.7Q42.7 116.8 43.9 112.8Q45.2 108.7 47.6 103.6ZM89.2 118.5Q89.2 113.3 91.7 109.1Q94.3 104.8 98.7 102.4Q103 99.9 108.2 99.9Q113.9 99.9 118.1 102.8Q122.3 105.7 124.4 110.8Q126.4 115.9 125.8 122.2H94.4V115H116.4Q116.1 113.1 115.1 111.5Q114 109.9 112.2 109Q110.5 108.2 108.2 108.2Q105.6 108.2 103.5 109.5Q101.4 110.8 100.2 113.2Q99 115.5 99 118.5Q99 121.4 100.2 123.8Q101.4 126.1 103.5 127.4Q105.5 128.7 108.2 128.8Q110.7 128.9 112.8 128.1Q114.9 127.3 116.3 125.8L122.9 131Q120.3 133.8 116.4 135.4Q112.5 137.1 108.2 137.1Q103 137.1 98.7 134.6Q94.3 132.2 91.7 127.9Q89.2 123.7 89.2 118.5ZM149.7 101H159.5V136H149.7ZM170.6 100.7V111.5Q168 111.5 165.9 112.3Q163.8 113.2 162.6 114.6Q161.4 116.1 161.4 117.9H159.5Q159 113 160.4 109Q161.8 105.1 164.5 102.9Q167.3 100.7 170.6 100.7ZM174.4 122.3V101H184.2V122.3Q184.2 124.2 184.9 125.6Q185.5 127 186.6 127.8Q187.8 128.6 189.3 128.6Q190.9 128.6 192.3 127.7Q193.7 126.8 194.5 125.1Q195.3 123.5 195.3 121.6H197.1Q197.1 126 195.7 129.5Q194.3 133 191.7 135Q189.2 137.1 185.9 137.1Q182.5 137.1 179.9 135.2Q177.3 133.3 175.9 130Q174.4 126.7 174.4 122.3ZM197.1 101H207V136H197.1ZM231.9 108.4Q230.3 108.4 228.9 109.3Q227.5 110.2 226.7 111.9Q226 113.5 226 115.4H224.1Q224.1 111 225.5 107.5Q227 104 229.5 102Q232.1 99.9 235.3 99.9Q238.7 99.9 241.3 101.8Q243.9 103.7 245.4 107Q246.8 110.3 246.8 114.7V136H237V114.7Q237 112.8 236.4 111.4Q235.8 110 234.6 109.2Q233.4 108.4 231.9 108.4ZM214.2 101H224.1V136H214.2ZM269.9 118.5Q269.9 113.5 272.3 109.2Q274.8 104.9 279.1 102.4Q283.4 99.9 288.4 99.9Q293.5 99.9 297.7 102.4Q302 104.9 304.5 109.2Q307 113.5 307 118.5Q307 123.5 304.5 127.8Q302 132.1 297.7 134.6Q293.5 137.1 288.4 137.1Q283.4 137.1 279.1 134.6Q274.8 132.1 272.3 127.8Q269.9 123.5 269.9 118.5ZM297.1 118.5Q297.1 116 295.9 113.9Q294.8 111.8 292.8 110.6Q290.8 109.3 288.4 109.3Q286 109.3 284 110.6Q282.1 111.8 280.9 113.9Q279.7 116 279.7 118.5Q279.7 121 280.9 123.1Q282.1 125.2 284 126.4Q286 127.7 288.4 127.7Q290.8 127.7 292.8 126.4Q294.8 125.2 295.9 123.1Q297.1 121 297.1 118.5ZM311.6 122.3V101H321.4V122.3Q321.4 124.2 322.1 125.6Q322.7 127 323.8 127.8Q325 128.6 326.5 128.6Q328.1 128.6 329.5 127.7Q330.9 126.8 331.7 125.1Q332.5 123.5 332.5 121.6H334.3Q334.3 126 332.9 129.5Q331.5 133 328.9 135Q326.4 137.1 323.1 137.1Q319.7 137.1 317.1 135.2Q314.5 133.3 313.1 130Q311.6 126.7 311.6 122.3ZM334.3 101H344.2V136H334.3ZM351.4 101H361.3V136H351.4ZM372.3 100.7V111.5Q369.7 111.5 367.6 112.3Q365.5 113.2 364.4 114.6Q363.2 116.1 363.2 117.9H361.3Q360.8 113 362.2 109Q363.6 105.1 366.3 102.9Q369 100.7 372.3 100.7ZM393.1 118.5Q393.1 113.5 395.5 109.2Q398 104.9 402.3 102.4Q406.6 99.9 411.6 99.9Q416.7 99.9 420.9 102.4Q425.2 104.9 427.7 109.2Q430.2 113.5 430.2 118.5Q430.2 123.5 427.7 127.8Q425.2 132.1 420.9 134.6Q416.7 137.1 411.6 137.1Q406.6 137.1 402.3 134.6Q398 132.1 395.5 127.8Q393.1 123.5 393.1 118.5ZM420.3 118.5Q420.3 116 419.1 113.9Q418 111.8 416 110.6Q414 109.3 411.6 109.3Q409.2 109.3 407.2 110.6Q405.3 111.8 404.1 113.9Q402.9 116 402.9 118.5Q402.9 121 404.1 123.1Q405.3 125.2 407.2 126.4Q409.2 127.7 411.6 127.7Q414 127.7 416 126.4Q418 125.2 419.1 123.1Q420.3 121 420.3 118.5ZM452.7 101H461.2L469.9 131.4H465.6L473.7 101H483.9L474 136H462.7ZM431 101H441.2L450.7 136H440.9ZM450.7 112.7Q451.8 110.2 452.4 108.5Q452.9 106.9 453.1 104.9Q453.3 103 452.7 101H461.2Q461.8 103.2 461.4 105.7Q461 108.1 460 110.3Q459.1 112.6 457.2 116.1Q455.2 120.1 453.9 123Q452.7 125.9 452.2 129.3Q451.7 132.6 452.6 136H450.7Q448.2 130.8 447.8 126.6Q447.4 122.5 448.2 119.5Q449 116.5 450.7 112.7ZM505.8 108.4Q504.2 108.4 502.8 109.3Q501.4 110.2 500.7 111.9Q499.9 113.5 499.9 115.4H498Q498 111 499.4 107.5Q500.9 104 503.4 102Q506 99.9 509.2 99.9Q512.6 99.9 515.2 101.8Q517.8 103.7 519.3 107Q520.7 110.3 520.7 114.7V136H510.9V114.7Q510.9 112.8 510.3 111.4Q509.7 110 508.5 109.2Q507.3 108.4 505.8 108.4ZM488.2 101H498V136H488.2ZM543.4 127.8Q543.4 125.2 545.3 123.6Q547.2 122 550.2 121.6Q553.2 121.2 556.6 122.1L556 124Q554.8 123.6 553.8 123.8Q552.8 124.1 552.2 124.6Q551.6 125.2 551.6 126.1Q551.6 127 552.4 127.8Q553.1 128.5 554.4 128.9Q555.7 129.3 557.2 129.3Q559.4 129.3 560.8 128.4Q562.2 127.4 562.2 125.9Q562.2 124.5 560.8 123.6Q559.3 122.7 556.6 122.1L555.7 121.9Q552.1 120.9 549.6 119.4Q547.1 117.9 545.6 115.7Q544.1 113.5 544.1 110.7Q544.1 107.5 545.8 105.1Q547.4 102.7 550.4 101.3Q553.4 99.9 557.3 99.9Q561 99.9 564.6 101.7Q568.3 103.4 570.4 106.6L564 111.7Q562.7 109.9 560.9 108.8Q559.1 107.7 557.3 107.7Q555.6 107.7 554.5 108.4Q553.5 109.2 553.5 110.4Q553.5 111.2 554.1 111.8Q554.8 112.5 556.1 113Q557.3 113.5 559.4 114.1Q559.7 114.1 559.9 114.2Q563.4 115.1 566 116.6Q568.5 118.2 570.1 120.6Q571.6 122.9 571.6 125.8Q571.6 129.1 569.7 131.6Q567.8 134.2 564.6 135.6Q561.3 137.1 557.2 137.1Q553.6 137.1 550.4 135.8Q547.2 134.6 545.3 132.4Q543.4 130.3 543.4 127.8ZM579.3 123.7V103.4H589.2V123.7Q589.2 125.8 590.2 127Q591.2 128.1 592.9 128.1Q594.1 128.1 594.9 127.9Q595.8 127.7 596.8 127.2V136Q595.9 136.5 594.3 136.8Q592.8 137.1 591.6 137.1Q585.3 137.1 582.3 133.8Q579.3 130.6 579.3 123.7ZM573.8 101H596.8V110.4H573.8ZM579.3 94.4V91.9H589.2V94.4Q589.2 96.9 587.3 98.5Q585.5 100.1 582 100.8Q578.5 101.5 573.8 101V99.6Q576.5 99.6 577.9 98.2Q579.3 96.9 579.3 94.4ZM600.3 118.4Q600.3 113.4 602.6 109.2Q605 104.9 609 102.4Q613.1 99.9 618.2 99.9Q622.7 99.9 626.1 102.3Q629.6 104.6 631.4 108.7Q633.3 112.9 633.3 118.4H629.9Q629.9 115.8 628.5 113.5Q627.2 111.3 624.9 110.1Q622.6 108.9 619.7 108.9Q616.9 108.9 614.7 110.1Q612.6 111.4 611.4 113.6Q610.2 115.8 610.2 118.5Q610.2 121.2 611.3 123.3Q612.4 125.5 614.5 126.7Q616.5 127.9 619.2 127.9Q621.7 127.9 623.7 126.6Q625.7 125.4 626.8 123.2Q628 121.1 628 118.4H629.9Q629.9 124 628.4 128.1Q627 132.2 624.2 134.5Q621.4 136.8 617.7 137Q612.7 137.3 608.7 134.8Q604.8 132.4 602.5 128Q600.3 123.6 600.3 118.4ZM629.9 101H639.7V136H629.9ZM644.4 118.5Q644.4 113.5 646.9 109.2Q649.4 104.9 653.7 102.4Q657.9 99.9 663 99.9Q667.2 99.9 670.8 101.7Q674.5 103.4 677.1 106.5L669.5 112.5Q668.4 111.1 666.7 110.3Q665 109.5 663 109.5Q660.5 109.5 658.5 110.7Q656.5 111.9 655.4 113.9Q654.3 116 654.3 118.5Q654.3 121 655.4 123.1Q656.5 125.1 658.5 126.3Q660.5 127.5 663 127.5Q665 127.5 666.7 126.7Q668.4 125.9 669.5 124.5L677.1 130.5Q674.5 133.6 670.8 135.3Q667.2 137.1 663 137.1Q657.9 137.1 653.7 134.6Q649.4 132.1 646.9 127.8Q644.4 123.5 644.4 118.5ZM699.1 120Q697.5 120 696.1 120.9Q694.7 121.8 693.9 123.4Q693.1 125 693.1 127H691.3Q691.3 124.4 691.8 122.2Q692.4 119.9 693.5 118.1L702.7 101H713.5L706.2 112.5Q708.6 113.3 710.4 115.1Q712.1 117 713.1 119.9Q714 122.7 714 126.3V136H704.2V126.3Q704.2 123.4 702.8 121.7Q701.5 120 699.1 120ZM681.4 87H691.3V136H681.4Z" fill="#000000"/></g>
<g transform="translate(741.3 72.0) scale(0.4921) translate(-0.0 -0.0)" fill="#5da9a9"><g class="wig"><g id="Layer_1-2" data-name="Layer 1">
    <g id="gRItzg">
      <g>
        <path d="M10.11,16.05c-.71-.97-3.83,6.83-8.95,2.45C-4.29,13.84,11.13.39,13.67.03c4.35-.62,11.24,10.1,15.3,12.74-1.06,8.12-6.05,7.6-10.86,2.28v101h91c-6.53-4.08-6.43-13.95,2.32-10.84.95.34,13.4,13.6,13.22,14.96-.12.95-12.34,13.48-13.26,13.75-5.43,1.58-8.72-6.4-3.29-9.87H13.61c-.4,0-3.5-3.97-3.5-4.5V16.05Z"/>
        <path d="M24.25,106.92c-1.28-.82-1.33-4.83-.23-6.43.71-1.03,15.93-8.9,18.99-11.03,13.39-9.31,27.13-26.37,24.04-43.84-1.92-10.87-18.23-10.49-20.7,2.17-2.76,14.1,10.39,21.11,10.42,23.78.04,5.51-5.53,4.47-8.98,2.32-16.4-10.25-10.7-47.45,12.77-43.75,9.18,1.45,14.5,10.78,14.64,19.42.33,20.02-14.64,37.29-30.18,47.91-3.23,2.21-17.6,11.48-20.76,9.46Z"/>
        <path d="M105.4,77.74c-.91-.67-3.57-5.11-4.03-6.44-1.15-3.33-.31-9.2-.77-9.25-4.89-.52-9.25,9.68-12.53,13.47-3.8,4.41-9.06,10.38-15.31,10.18-5.19-.17-9.51-4.05-4.71-8.23,3.2-2.79,3.74.55,6.14.15,8.11-1.35,14.85-22.23,23.5-23.52,14.84-2.22,8.86,17.21,11.91,16.95,6.01-.51,24.81-27.12,31.01-31.03,1.58,0,3.79,2.52,4.05,3.95.68,3.74-27.11,33.27-32.53,34.64-2.52.64-4.52.76-6.72-.87Z"/>
      </g>
    </g>
  </g></g></g>
<path class="draw" pathLength="1" d="M22.0 166.0q43.3 9 86.7 0q43.3 -9 86.7 0q43.3 9 86.7 0q43.3 -9 86.7 0q43.3 9 86.7 0q43.3 -9 86.7 0" fill="none" stroke="#5da9a9" stroke-width="5" stroke-linecap="round"/>
</svg>